<svg width="16" height="16" viewBox="0 0 16 16" fill="none" xmlns="http://www.w3.org/2000/svg">
<path fill-rule="evenodd" clip-rule="evenodd" d="M2 0C0.895431 0 0 0.895431 0 2V14C0 15.1046 0.895431 16 2 16L8.58245 16V8.80669H7.1795V6.27867H8.58245V4.64276C8.58245 3.4729 9.13348 1.64103 11.5585 1.64103L13.7436 1.65025V4.10412H12.1582C11.8982 4.10412 11.5325 4.23515 11.5325 4.79321V6.28102H13.737L13.4793 8.80669H11.5323V16L14 16C15.1046 16 16 15.1046 16 14V2C16 0.895431 15.1046 0 14 0H2Z" fill="white"/>
</svg>
