<svg width="19" height="17" viewBox="0 0 19 17" fill="none" xmlns="http://www.w3.org/2000/svg">
<path d="M4.70398 4.77799C4.25598 5.19799 3.70998 5.40799 3.06598 5.40799C2.42198 5.40799 1.87598 5.19799 1.42798 4.77799C0.979981 4.32999 0.755981 3.79799 0.755981 3.18199C0.755981 2.55199 0.979981 2.02699 1.42798 1.60699C1.86198 1.17299 2.40798 0.955994 3.06598 0.955994C3.72398 0.955994 4.26998 1.17299 4.70398 1.60699C5.15198 2.02699 5.37598 2.55199 5.37598 3.18199C5.37598 3.79799 5.15198 4.32999 4.70398 4.77799ZM5.10298 6.66799V17H1.02898V6.66799H5.10298Z" fill="white"/>
<path d="M13.8808 6.35299C15.1688 6.35299 16.1978 6.75199 16.9678 7.54999C17.7518 8.34799 18.1438 9.43999 18.1438 10.826V17H14.0698V11.708C14.0698 11.134 13.9368 10.707 13.6708 10.427C13.4048 10.133 13.0548 9.98599 12.6208 9.98599C12.1308 9.98599 11.6548 10.217 11.1928 10.679V17H7.13982V6.66799H11.1928V7.27699C12.0188 6.66099 12.9148 6.35299 13.8808 6.35299Z" fill="white"/>
</svg>
