<svg width="18" height="16" viewBox="0 0 18 16" fill="none" xmlns="http://www.w3.org/2000/svg">
<path d="M8.99996 8.29825e-07C4.02944 8.29825e-07 0 3.58174 0 8C0 11.3892 2.37224 14.2865 5.72015 15.4522C5.6415 14.8192 5.57038 13.8458 5.75135 13.1548C5.91491 12.5304 6.80671 9.17824 6.80671 9.17824C6.80671 9.17824 6.5375 8.699 6.5375 7.99049C6.5375 6.87809 7.26286 6.04761 8.16601 6.04761C8.93386 6.04761 9.30473 6.56004 9.30473 7.1745C9.30473 7.86091 8.81309 8.88714 8.55938 9.83815C8.34735 10.6344 9.00859 11.2838 9.89212 11.2838C11.4917 11.2838 12.7213 9.78451 12.7213 7.62037C12.7213 5.7049 11.1729 4.36566 8.96197 4.36566C6.40116 4.36566 4.89807 6.07299 4.89807 7.83743C4.89807 8.52502 5.19605 9.26231 5.56787 9.66313C5.64143 9.74234 5.6522 9.81173 5.63029 9.89258C5.56197 10.1453 5.41014 10.6886 5.38034 10.7999C5.34109 10.9463 5.2499 10.9774 5.07934 10.9068C3.9553 10.4417 3.25252 8.98092 3.25252 7.80759C3.25252 5.28402 5.31527 2.96643 9.19915 2.96643C12.3212 2.96643 14.7475 4.944 14.7475 7.58686C14.7475 10.344 12.7918 12.5629 10.0773 12.5629C9.16529 12.5629 8.30795 12.1417 8.01448 11.6442C8.01448 11.6442 7.56319 13.1717 7.45379 13.546C7.25061 14.2409 6.70209 15.1119 6.33521 15.6433C7.17728 15.875 8.07217 16 8.99996 16C13.9706 16 18 12.4183 18 8C18 3.58174 13.9706 8.29825e-07 8.99996 8.29825e-07Z" fill="white"/>
</svg>
